<svg width="200" height="200" viewBox="0 0 200 200" fill="none" xmlns="http://www.w3.org/2000/svg">
<g clip-path="url(#clip0_9728_33)">
<path fill-rule="evenodd" clip-rule="evenodd" d="M123.863 40.0037C120.564 40.0037 117.894 37.405 117.894 34.1947C117.894 30.9844 120.564 28.3974 123.863 28.3974C127.161 28.3974 129.831 30.9844 129.831 34.1947C129.831 37.405 127.161 40.0037 123.863 40.0037ZM76.1374 40.0037C72.8389 40.0037 70.1688 37.405 70.1688 34.1947C70.1688 30.9844 72.8389 28.3974 76.1374 28.3974C79.4359 28.3974 82.1061 30.9844 82.1061 34.1947C82.1061 37.405 79.4359 40.0037 76.1374 40.0037ZM127.391 16.744L129.614 13.4751L131.837 10.2529L136.791 3.00932C137.407 2.11561 137.153 0.916054 136.235 0.328092C135.329 -0.271629 134.084 -0.0246881 133.492 0.869016L125.929 11.8874L123.657 15.2036C116.468 12.4872 108.458 10.9703 100 10.9703C91.5545 10.9703 83.5319 12.4872 76.3429 15.2036L74.0835 11.8874L71.8483 8.63014L66.532 0.869016C65.9158 -0.0246881 64.6835 -0.259871 63.7652 0.328092C62.859 0.916054 62.6053 2.11561 63.2094 3.00932L68.1632 10.2529L70.3862 13.4751L72.6215 16.744C55.7426 24.3993 44.3247 38.8984 44.3247 55.4906H155.675C155.675 38.8984 144.257 24.3993 127.391 16.744ZM45.1827 63.2284H44.3247V148.389C44.3247 155.15 49.9672 160.654 56.9266 160.654H66.0124C65.6983 161.677 65.5292 162.747 65.5292 163.876V188.394C65.5292 194.802 70.8816 200 77.4665 200C84.0513 200 89.4038 194.802 89.4038 188.394V163.876C89.4038 162.747 89.2226 161.677 88.9206 160.654H111.079C110.777 161.677 110.608 162.747 110.608 163.876V188.394C110.608 194.802 115.949 200 122.534 200C129.13 200 134.483 194.802 134.483 188.394V163.876C134.483 162.747 134.302 161.677 133.988 160.654H143.085C150.045 160.654 155.675 155.15 155.675 148.389V63.2284H45.1827ZM24.4373 63.2284C17.8404 63.2284 12.5 68.4259 12.5 74.8347V124.517C12.5 130.926 17.8404 136.124 24.4373 136.124C31.0222 136.124 36.3626 130.926 36.3626 124.517V74.8347C36.3626 68.4259 31.0222 63.2284 24.4373 63.2284ZM175.575 63.2284C168.978 63.2284 163.637 68.4259 163.637 74.8347V124.517C163.637 130.926 168.978 136.124 175.575 136.124C182.16 136.124 187.5 130.926 187.5 124.517V74.8347C187.5 68.4259 182.16 63.2284 175.575 63.2284Z" fill="#95CF00"/>
</g>
<defs>
<clipPath id="clip0_9728_33">
<rect width="200" height="200" fill="white"/>
</clipPath>
</defs>
</svg>
