<svg width="200" height="200" viewBox="0 0 200 200" fill="none" xmlns="http://www.w3.org/2000/svg">
<path d="M56.3749 96.0875C56.3749 98.55 56.6249 100.55 57.0999 102.025C57.6249 103.487 58.2999 105.087 59.2249 106.825C59.5201 107.284 59.6803 107.817 59.6874 108.362C59.6874 109.025 59.2874 109.7 58.4374 110.363L54.2374 113.163C53.7332 113.526 53.1336 113.735 52.5124 113.763C51.8374 113.763 51.1749 113.438 50.5124 112.838C49.614 111.871 48.8103 110.82 48.1124 109.7C47.3688 108.418 46.6807 107.104 46.0499 105.763C40.8624 111.9 34.3499 114.975 26.4999 114.975C20.9124 114.975 16.4499 113.362 13.1999 110.162C9.9374 106.962 8.2749 102.688 8.2749 97.35C8.2749 91.675 10.2749 87.075 14.3249 83.6C18.3874 80.125 23.7749 78.4 30.6249 78.4C32.8749 78.4 35.2124 78.6 37.6749 78.925C40.1374 79.2625 42.6749 79.8 45.3249 80.4V75.525C45.3249 70.45 44.2624 66.9125 42.1999 64.85C40.0749 62.775 36.4749 61.775 31.3499 61.775C29.0249 61.775 26.6374 62.05 24.1749 62.65C21.7283 63.2323 19.3264 63.9884 16.9874 64.9125C16.2323 65.2544 15.4556 65.5467 14.6624 65.7875C14.3187 65.9011 13.9614 65.9683 13.5999 65.9875C12.6624 65.9875 12.1999 65.3125 12.1999 63.9125V60.6375C12.1999 59.575 12.3249 58.7625 12.6624 58.3125C13.1661 57.6992 13.8089 57.2149 14.5374 56.9C16.8499 55.7 19.6499 54.7 22.9124 53.9C26.1624 53.025 29.6249 52.6375 33.2874 52.6375C41.1999 52.6375 46.9874 54.4375 50.7124 58.0375C54.3749 61.6375 56.2374 67.1125 56.2374 74.4625V96.0875H56.3624H56.3749ZM29.3624 106.225C31.5499 106.225 33.8124 105.825 36.2124 105.025C38.5999 104.225 40.7374 102.75 42.5249 100.75C43.5968 99.522 44.371 98.0634 44.7874 96.4875C45.1874 94.875 45.4624 92.95 45.4624 90.675V87.875C43.4435 87.3854 41.3986 87.0098 39.3374 86.75C37.2648 86.4819 35.1773 86.3441 33.0874 86.3375C28.6249 86.3375 25.3624 87.2125 23.1749 89.0125C20.9749 90.8125 19.9249 93.35 19.9249 96.6875C19.9249 99.8125 20.7124 102.15 22.3749 103.762C23.9749 105.425 26.2999 106.225 29.3624 106.225ZM82.7749 113.438C81.5749 113.438 80.7749 113.238 80.2499 112.763C79.7124 112.363 79.2499 111.437 78.8499 110.162L63.2249 58.575C62.9167 57.7104 62.7112 56.8126 62.6124 55.9C62.6124 54.8375 63.1499 54.2375 64.2124 54.2375H70.7374C71.9874 54.2375 72.8624 54.4375 73.3249 54.9C73.8624 55.3 74.2624 56.2375 74.6624 57.5L85.8374 101.688L96.2124 57.5C96.5374 56.175 96.9374 55.3 97.4624 54.9C98.2645 54.4087 99.1988 54.1773 100.137 54.2375H105.45C106.725 54.2375 107.575 54.4375 108.112 54.9C108.65 55.3 109.112 56.2375 109.375 57.5L119.887 102.225L131.387 57.5C131.601 56.5322 132.062 55.6363 132.725 54.9C133.499 54.4091 134.41 54.1771 135.325 54.2375H141.512C142.575 54.2375 143.175 54.775 143.175 55.9C143.175 56.2375 143.1 56.575 143.05 56.975C142.942 57.5425 142.783 58.0989 142.575 58.6375L126.537 110.225C126.137 111.563 125.675 112.438 125.15 112.838C124.395 113.32 123.507 113.552 122.612 113.5H116.9C115.637 113.5 114.775 113.3 114.237 112.838C113.7 112.363 113.237 111.5 112.975 110.162L102.662 67.125L92.4124 110.113C92.0874 111.45 91.6874 112.313 91.1624 112.775C90.6249 113.25 89.6874 113.45 88.4999 113.45H82.7749V113.438ZM168.25 115.238C164.798 115.242 161.357 114.839 158 114.038C154.675 113.238 152.087 112.363 150.35 111.363C149.287 110.763 148.562 110.1 148.287 109.488C148.033 108.899 147.901 108.266 147.9 107.625V104.225C147.9 102.825 148.425 102.15 149.425 102.15C149.833 102.151 150.238 102.218 150.625 102.35C151.025 102.487 151.625 102.75 152.287 103.025C154.537 104.025 157.012 104.825 159.6 105.363C162.262 105.888 164.85 106.163 167.512 106.163C171.712 106.163 174.962 105.425 177.225 103.963C178.312 103.305 179.205 102.37 179.813 101.255C180.421 100.139 180.723 98.8825 180.687 97.6125C180.71 96.755 180.562 95.9016 180.253 95.1013C179.945 94.3011 179.48 93.57 178.887 92.95C177.7 91.675 175.437 90.5375 172.175 89.475L162.525 86.475C157.675 84.9375 154.075 82.6625 151.887 79.6625C149.746 76.8905 148.577 73.4903 148.562 69.9875C148.562 67.1875 149.162 64.7125 150.35 62.575C151.55 60.45 153.15 58.575 155.15 57.1C157.15 55.575 159.4 54.4375 162.062 53.6375C164.725 52.8375 167.512 52.5 170.437 52.5C171.912 52.5 173.437 52.5625 174.9 52.7625C176.425 52.9625 177.825 53.2375 179.225 53.5125C180.55 53.8375 181.825 54.1625 183.012 54.575C184.212 54.975 185.137 55.375 185.812 55.775C186.597 56.1691 187.281 56.7379 187.812 57.4375C188.24 58.0883 188.446 58.86 188.4 59.6375V62.775C188.4 64.175 187.875 64.9125 186.875 64.9125C185.989 64.8114 185.132 64.5397 184.35 64.1125C180.33 62.3303 175.971 61.4432 171.575 61.5125C167.787 61.5125 164.787 62.1125 162.725 63.3875C160.662 64.6375 159.6 66.5875 159.6 69.325C159.6 71.1875 160.262 72.7875 161.6 74.0625C162.925 75.325 165.387 76.5875 168.912 77.725L178.362 80.725C183.15 82.2625 186.612 84.4 188.675 87.1375C190.737 89.875 191.725 93.0125 191.725 96.4875C191.725 99.3625 191.137 101.95 190 104.225C188.822 106.508 187.168 108.511 185.15 110.1C183.087 111.762 180.625 112.975 177.762 113.838C174.762 114.775 171.637 115.238 168.25 115.238Z" fill="#252F3E"/>
<path fill-rule="evenodd" clip-rule="evenodd" d="M180.813 147.663C158.938 163.875 127.138 172.488 99.8001 172.488C61.4876 172.488 26.9626 158.275 0.887605 134.65C-1.1749 132.775 0.687605 130.238 3.1376 131.713C31.3501 148.125 66.1376 158.075 102.138 158.075C126.4 158.075 153.075 153 177.625 142.588C181.288 140.925 184.413 144.988 180.813 147.663Z" fill="#FF9900"/>
<path fill-rule="evenodd" clip-rule="evenodd" d="M189.925 137.25C187.138 133.663 171.438 135.525 164.325 136.388C162.2 136.663 161.863 134.788 163.788 133.388C176.288 124.575 196.85 127.113 199.238 130.05C201.638 133.05 198.575 153.675 186.863 163.55C185.075 165.088 183.35 164.3 184.138 162.3C186.8 155.675 192.725 140.8 189.925 137.263V137.25Z" fill="#FF9900"/>
</svg>
