<svg width="200" height="200" viewBox="0 0 200 200" fill="none" xmlns="http://www.w3.org/2000/svg">
<path d="M93.375 155.15L135.225 147.75L135.613 147.662L114.088 122.05C106.869 113.508 99.6896 104.933 92.55 96.325C92.55 96.2 114.788 34.9625 114.913 34.75C127.216 55.8129 139.441 76.9214 151.588 98.075L188.463 162.013L188.75 162.5L51.9 162.487L93.375 155.15ZM11.25 147.35C11.25 147.313 21.3875 129.7 33.7875 108.212L56.3375 69.125L82.6125 47.075C97.0625 34.9625 108.925 25 108.962 25C108.869 25.3698 108.731 25.7267 108.55 26.0625L80 87.2625L52 147.362L31.625 147.388C20.4125 147.4 11.25 147.388 11.25 147.35Z" fill="#0089D6"/>
</svg>
