<svg width="200" height="200" viewBox="0 0 200 200" fill="none" xmlns="http://www.w3.org/2000/svg">
<g clip-path="url(#clip0_9746_992)">
<path d="M170 0H30C13.4315 0 0 13.4315 0 30V170C0 186.569 13.4315 200 30 200H170C186.569 200 200 186.569 200 170V30C200 13.4315 186.569 0 170 0Z" fill="white"/>
<path d="M129.297 127.344C133.594 117.187 127.734 112.5 121.875 112.5L64.0626 111.719C62.5001 111.719 62.5001 109.375 64.4532 108.984L123.047 108.203C129.688 107.812 137.5 102.344 139.844 95.3125C139.844 95.3125 143.75 87.1094 143.359 85.9375C141.668 77.7784 137.335 70.4043 131.03 64.9565C124.725 59.5087 116.8 56.2912 108.482 55.8019C100.164 55.3126 91.9168 57.5788 85.0166 62.2498C78.1165 66.9208 72.9485 73.7361 70.3126 81.6406C55.4688 71.875 39.8438 85.1562 43.3594 99.6094C24.6094 100.781 17.9688 117.578 19.9219 127.734C19.9219 128.125 20.3126 128.516 21.0938 128.516H128.125C128.516 128.516 129.297 128.125 129.297 127.344Z" fill="#F38020"/>
<path d="M148.828 87.5C147.266 87.5 146.484 87.1094 146.094 87.8906L144.141 96.0938C142.188 102.344 145.312 107.812 151.953 108.203L164.453 108.984C166.016 108.984 166.016 111.328 164.062 111.719L151.172 112.109C137.109 113.672 133.203 127.344 133.203 127.344C133.203 128.125 133.203 128.516 133.984 128.516H178.125L179.297 127.734C180.625 123.028 180.844 118.078 179.937 113.272C179.03 108.467 177.022 103.937 174.07 100.039C171.117 96.1404 167.302 92.9793 162.922 90.8037C158.543 88.6281 153.718 87.4973 148.828 87.5Z" fill="#FAAE40"/>
</g>
<defs>
<clipPath id="clip0_9746_992">
<rect width="200" height="200" fill="white"/>
</clipPath>
</defs>
</svg>
