<svg width="200" height="200" viewBox="0 0 200 200" fill="none" xmlns="http://www.w3.org/2000/svg">
<path d="M100 187.5C148.325 187.5 187.5 148.325 187.5 100C187.5 51.6751 148.325 12.5 100 12.5C51.6751 12.5 12.5 51.6751 12.5 100C12.5 148.325 51.6751 187.5 100 187.5Z" fill="#1794D4"/>
<path d="M112.5 43.75H100V56.25H112.5V43.75Z" fill="white"/>
<path d="M62.5 62.5H75V75H62.5V62.5Z" fill="white"/>
<path d="M37.5097 105.884C38.5777 124.017 49.3767 150 87.5 150C130 150 148.958 118.75 153.125 103.125C158.333 103.125 170 100 175 87.5C171.875 84.375 159.375 84.375 153.125 87.5C153.125 82.5 150 71.875 143.75 68.75C139.583 72.9169 133.125 83.75 140.625 93.75C137.5 100 129.167 100 125 100H43.3931C40.0839 100 37.315 102.58 37.5097 105.884Z" fill="white"/>
<path d="M56.25 81.25H43.75V93.75H56.25V81.25Z" fill="white"/>
<path d="M62.5 81.25H75V93.75H62.5V81.25Z" fill="white"/>
<path d="M93.75 81.25H81.25V93.75H93.75V81.25Z" fill="white"/>
<path d="M100 81.25H112.5V93.75H100V81.25Z" fill="white"/>
<path d="M131.25 81.25H118.75V93.75H131.25V81.25Z" fill="white"/>
<path d="M93.75 62.5H81.25V75H93.75V62.5Z" fill="white"/>
<path d="M100 62.5H112.5V75H100V62.5Z" fill="white"/>
</svg>
