<svg width="200" height="200" viewBox="0 0 200 200" fill="none" xmlns="http://www.w3.org/2000/svg">
<g clip-path="url(#clip0_9625_27)">
<path d="M200 0H0V200H200V0Z" fill="#512BD4"/>
<path d="M35.6463 127.778C34.2322 127.778 33.0302 127.307 32.0403 126.364C31.0504 125.397 30.5554 124.25 30.5554 122.921C30.5554 121.567 31.0504 120.407 32.0403 119.441C33.0302 118.474 34.2322 117.991 35.6463 117.991C37.0841 117.991 38.2979 118.474 39.2878 119.441C40.3013 120.407 40.808 121.567 40.808 122.921C40.808 124.25 40.3013 125.397 39.2878 126.364C38.2979 127.307 37.0841 127.778 35.6463 127.778Z" fill="white"/>
<path d="M92.1786 126.98H82.9865L58.7694 88.7746C58.1567 87.8079 57.6496 86.8048 57.2492 85.7658H57.0369C57.2255 86.8776 57.3198 89.2579 57.3198 92.9066V126.98H49.1882V75H58.9812L82.3856 112.3C83.3755 113.846 84.0119 114.91 84.2948 115.489H84.436C84.2005 114.112 84.0825 111.78 84.0825 108.493V75H92.1786V126.98Z" fill="white"/>
<path d="M131.776 126.98H103.316V75H130.645V82.3224H111.731V97.039H129.16V104.325H111.731V119.694H131.776V126.98Z" fill="white"/>
<path d="M172.222 82.3224H157.657V126.98H149.242V82.3224H134.712V75H172.222V82.3224Z" fill="white"/>
</g>
<defs>
<clipPath id="clip0_9625_27">
<rect width="200" height="200" fill="white"/>
</clipPath>
</defs>
</svg>
