<svg width="200" height="200" viewBox="0 0 200 200" fill="none" xmlns="http://www.w3.org/2000/svg">
<g clip-path="url(#clip0_9620_7231)">
<path d="M200 154.9C197.089 156.001 193.876 155.999 190.967 154.893C188.058 153.788 185.654 151.656 184.208 148.9L155.458 109.142L151.292 103.583L117.933 148.95C116.575 151.59 114.301 153.646 111.538 154.732C108.774 155.817 105.709 155.86 102.917 154.85L145.9 97.1833L105.917 45.0917C108.792 44.0556 111.936 44.0419 114.82 45.0528C117.704 46.0637 120.151 48.0374 121.75 50.6417L151.55 90.8917L181.517 50.8083C182.886 48.2149 185.16 46.2149 187.907 45.1886C190.654 44.1622 193.683 44.1811 196.417 45.2417L180.9 65.8333L159.883 93.1917C159.3 93.7123 158.833 94.3504 158.513 95.0642C158.193 95.7779 158.028 96.5512 158.028 97.3333C158.028 98.1155 158.193 98.8887 158.513 99.6025C158.833 100.316 159.3 100.954 159.883 101.475L199.917 154.908L200 154.9ZM0.0167666 96.4667L3.51677 79.175C13.1334 44.9833 52.3334 30.7583 79.3001 51.925C95.0918 64.3333 99.0334 81.9 98.2584 101.7H9.3001C7.85843 137.058 33.3751 158.408 66.0001 147.5C71.2889 145.596 76.0229 142.41 79.7781 138.228C83.5332 134.045 86.1922 128.996 87.5168 123.533C89.2418 117.983 92.0834 117.033 97.3001 118.633C96.4308 125.403 94.0377 131.888 90.3007 137.599C86.5637 143.311 81.5802 148.101 75.7251 151.608C66.0536 156.899 54.957 158.995 44.022 157.599C33.0869 156.202 22.8734 151.384 14.8418 143.833C6.90034 134.895 2.10073 123.604 1.1751 111.683C1.1751 109.725 0.508433 107.892 0.0584333 106.133C0.0178669 102.914 -0.00157798 99.6945 9.9969e-05 96.475L0.0167666 96.4667ZM9.40843 94.0833H89.8584C89.3584 68.45 73.1834 50.2667 51.6084 50.1C27.5918 49.7667 10.4084 67.55 9.3501 93.9667L9.40843 94.0833Z" fill="black"/>
</g>
<defs>
<clipPath id="clip0_9620_7231">
<rect width="200" height="200" fill="white"/>
</clipPath>
</defs>
</svg>
