<svg width="200" height="200" viewBox="0 0 200 200" fill="none" xmlns="http://www.w3.org/2000/svg">
<path d="M106.875 100C106.875 83.8875 119.612 70.8375 135.312 70.8375C151.025 70.8375 163.75 83.875 163.75 100C163.75 116.113 151.025 129.163 135.312 129.163C119.625 129.163 106.875 116.125 106.875 100Z" fill="#1ABCFE"/>
<path d="M50 158.337C50 142.225 62.7375 129.162 78.4375 129.162H106.875V158.337C106.875 174.437 94.1375 187.5 78.4375 187.5C62.7375 187.5 50 174.437 50 158.337Z" fill="#0ACF83"/>
<path d="M106.875 12.5V70.8375H135.312C151.025 70.8375 163.75 57.775 163.75 41.6625C163.75 25.5625 151.025 12.5 135.312 12.5H106.875Z" fill="#FF7262"/>
<path d="M50 41.6625C50 57.775 62.7375 70.8375 78.4375 70.8375H106.875V12.5H78.4375C62.7375 12.5 50 25.5625 50 41.6625Z" fill="#F24E1E"/>
<path d="M50 100C50 116.113 62.7375 129.163 78.4375 129.163H106.875V70.8375H78.4375C62.7375 70.8375 50 83.875 50 100Z" fill="#A259FF"/>
</svg>
