<svg width="200" height="200" viewBox="0 0 200 200" fill="none" xmlns="http://www.w3.org/2000/svg">
<g clip-path="url(#clip0_9620_7214)">
<path d="M27.25 161.492L28.4618 159.798L85.6288 51.0762L85.75 49.9256L60.5523 2.47493C60.091 1.60721 59.3692 0.906886 58.4891 0.473021C57.609 0.0391567 56.6151 -0.106278 55.6479 0.0572911C54.6808 0.220861 53.7895 0.685153 53.1001 1.38448C52.4106 2.08381 51.958 2.98278 51.8062 3.95419L27.25 161.492Z" fill="#FFC24A"/>
<path d="M27.75 160.242L28.6666 158.454L85.5 50.781L60.2518 3.10908C59.8355 2.28003 59.1613 1.60803 58.3304 1.19376C57.4996 0.779499 56.5566 0.645268 55.6429 0.811183C54.7292 0.977099 53.894 1.43423 53.2623 2.11409C52.6306 2.79394 52.2364 3.65992 52.1389 4.58229L27.75 160.242Z" fill="#FFA712"/>
<path d="M104.146 85.742L123 66.4409L104.139 30.548C103.724 29.7756 103.107 29.1299 102.353 28.6798C101.599 28.2297 100.737 27.992 99.8589 27.992C98.9805 27.992 98.1186 28.2297 97.3649 28.6798C96.6112 29.1299 95.9939 29.7756 95.5788 30.548L85.5 49.7204V51.3575L104.146 85.742Z" fill="#F4BD62"/>
<path d="M103.772 84.992L122 66.2703L103.772 31.3994C103.473 30.6446 102.964 29.9925 102.304 29.5217C101.645 29.0509 100.864 28.7815 100.055 28.746C99.2463 28.7105 98.4447 28.9104 97.7467 29.3216C97.0488 29.7328 96.4843 30.3378 96.1214 31.0636L86.0492 50.5641L85.75 51.5574L103.772 84.992Z" fill="#FFA50E"/>
<path d="M27.25 161.492L27.7999 160.935L29.7926 160.128L103.072 87.1134L104 84.5848L85.7231 49.742L27.25 161.492Z" fill="#F6820C"/>
<path d="M106.505 198.254L172.75 161.244L153.821 44.5399C153.685 43.7172 153.326 42.9479 152.782 42.3164C152.239 41.6849 151.532 41.2157 150.74 40.9602C149.948 40.7047 149.101 40.6729 148.291 40.8682C147.482 41.0635 146.743 41.4784 146.153 42.0674L27.25 161.408L93.103 198.246C95.1503 199.391 97.4558 199.992 99.8003 199.992C102.145 199.992 104.45 199.391 106.498 198.246" fill="#FDE068"/>
<path d="M172.25 160.831L153.436 45.053C153.403 44.2664 153.137 43.5074 152.672 42.8719C152.207 42.2365 151.563 41.7532 150.823 41.4832C150.083 41.2132 149.28 41.1687 148.514 41.3553C147.749 41.5419 147.056 41.9512 146.524 42.5314L27.75 161.081L93.0198 197.511C95.0554 198.646 97.3475 199.242 99.6783 199.242C102.009 199.242 104.301 198.646 106.337 197.511L172.25 160.831Z" fill="#FCCA3F"/>
<path d="M106.505 197.139C104.457 198.283 102.152 198.884 99.8074 198.884C97.4629 198.884 95.1574 198.283 93.1101 197.139L27.7921 160.849L27.25 161.407L93.103 198.246C95.1503 199.391 97.4558 199.992 99.8003 199.992C102.145 199.992 104.45 199.391 106.498 198.246L172.75 161.242L172.586 160.242L106.505 197.139Z" fill="#EEAB37"/>
</g>
<defs>
<clipPath id="clip0_9620_7214">
<rect width="200" height="200" fill="white"/>
</clipPath>
</defs>
</svg>
