<svg width="200" height="200" viewBox="0 0 200 200" fill="none" xmlns="http://www.w3.org/2000/svg">
<g clip-path="url(#clip0_9625_50)">
<path d="M4.18115 110.094C-1.39372 104.519 -1.39372 95.4808 4.18115 89.9058L89.9058 4.18115C95.4808 -1.39372 104.519 -1.39372 110.094 4.18115L195.819 89.9058C201.394 95.4808 201.394 104.519 195.819 110.094L110.094 195.819C104.519 201.394 95.4808 201.394 89.9058 195.819L4.18115 110.094Z" fill="#EE513B"/>
<path d="M72.6295 22L64 30.6846L86.2884 53.1147C85.3866 55.0614 84.8832 57.2324 84.8832 59.5219C84.8832 66.0217 88.9412 71.5676 94.6466 73.7335V128.603C88.9412 130.769 84.8832 136.315 84.8832 142.815C84.8832 151.201 91.6388 158 99.9722 158C108.306 158 115.061 151.201 115.061 142.815C115.061 136.923 111.726 131.813 106.851 129.297V73.8085L128.157 95.2496C127.299 97.1568 126.822 99.2742 126.822 101.504C126.822 109.89 133.578 116.689 141.911 116.689C150.244 116.689 157 109.89 157 101.504C157 93.1173 150.244 86.3188 141.911 86.3188C140.291 86.3188 138.732 86.5753 137.269 87.0505L114.387 64.0231C114.825 62.601 115.061 61.089 115.061 59.5219C115.061 51.1354 108.306 44.3369 99.9722 44.3369C98.415 44.3369 96.9132 44.5743 95.4994 45.0151L72.6295 22Z" fill="white"/>
</g>
<defs>
<clipPath id="clip0_9625_50">
<rect width="200" height="200" fill="white"/>
</clipPath>
</defs>
</svg>
