<svg width="200" height="200" viewBox="0 0 200 200" fill="none" xmlns="http://www.w3.org/2000/svg">
<path d="M133.009 63.9207L150.394 46.5356L151.553 39.2153C119.872 10.4082 69.5122 13.6746 40.9536 46.0309C33.0208 55.0176 27.1356 66.2215 23.9973 77.791L30.2239 76.9137L64.9934 71.1801L67.6778 68.4348C83.1442 51.4489 109.295 49.1637 127.153 63.616L133.009 63.9207Z" fill="#EA4335"/>
<path d="M175.16 77.2798C171.164 62.5641 162.96 49.3352 151.553 39.2157L127.153 63.6157C137.456 72.0344 143.326 84.7173 143.074 98.0196V102.351C155.067 102.351 164.79 112.074 164.79 124.066C164.79 136.06 155.067 145.539 143.074 145.539H99.5811L95.3108 150.175V176.222L99.5811 180.309H143.074C174.269 180.552 199.755 155.704 199.998 124.509C200.145 105.6 190.823 87.8735 175.16 77.2798Z" fill="#4285F4"/>
<path d="M56.1488 180.309H99.5808V145.539H56.1488C53.0542 145.538 50.0574 144.873 47.2433 143.587L41.0816 145.478L23.5746 162.863L22.0496 168.78C31.8675 176.193 43.8464 180.362 56.1488 180.309Z" fill="#34A853"/>
<path d="M56.1487 67.5199C24.9526 67.7058 -0.184913 93.1465 0.00102489 124.342C0.104931 141.762 8.24087 158.161 22.0495 168.78L47.2432 143.587C36.3127 138.649 31.4557 125.786 36.394 114.856C41.3315 103.926 54.1956 99.0691 65.1245 104.007C69.9409 106.182 73.7979 110.04 75.9737 114.856L101.167 89.6629C90.4479 75.6496 73.7916 67.4566 56.1487 67.5199Z" fill="#FBBC05"/>
</svg>
