<svg width="200" height="200" viewBox="0 0 200 200" fill="none" xmlns="http://www.w3.org/2000/svg">
<g clip-path="url(#clip0_9620_7201)">
<path d="M0 0H200V200H0V0Z" fill="#F7DF1E"/>
<path d="M52.5872 167.135L67.8926 157.872C70.8453 163.107 73.5314 167.537 79.9742 167.537C86.1501 167.537 90.0437 165.121 90.0437 155.724V91.8194H108.839V155.99C108.839 175.456 97.4279 184.317 80.7799 184.317C65.7447 184.317 57.0171 176.53 52.5869 167.133" fill="black"/>
<path d="M119.048 165.121L134.351 156.26C138.38 162.839 143.616 167.672 152.878 167.672C160.666 167.672 165.632 163.778 165.632 158.408C165.632 151.964 160.531 149.681 151.938 145.924L147.241 143.908C133.681 138.137 124.685 130.887 124.685 115.582C124.685 101.485 135.425 90.7448 152.208 90.7448C164.156 90.7448 172.748 94.907 178.923 105.782L164.29 115.179C161.067 109.406 157.578 107.124 152.208 107.124C146.703 107.124 143.213 110.615 143.213 115.179C143.213 120.817 146.703 123.1 154.758 126.591L159.456 128.605C175.432 135.452 184.428 142.432 184.428 158.139C184.428 175.056 171.137 184.319 153.282 184.319C135.829 184.319 124.551 175.996 119.048 165.121Z" fill="black"/>
</g>
<defs>
<clipPath id="clip0_9620_7201">
<rect width="200" height="200" fill="white"/>
</clipPath>
</defs>
</svg>
