<svg width="200" height="200" viewBox="0 0 200 200" fill="none" xmlns="http://www.w3.org/2000/svg">
<path d="M166.725 150.412C165.475 149.012 164.9 146.425 164.262 143.662C163.637 140.912 162.925 137.95 160.662 136.037V136.025C159.837 135.31 158.894 134.743 157.875 134.35C161.025 125.037 159.787 115.762 156.625 107.387C152.725 97.0999 145.937 88.1375 140.75 82.0125C134.95 74.6875 129.275 67.7375 129.375 57.475C129.55 41.8 131.1 12.7375 103.525 12.7C102.4 12.7 101.237 12.75 100.025 12.85C69.1999 15.325 77.3749 47.8875 76.9124 58.7875C76.3499 66.7625 74.7374 73.0375 69.2499 80.8375C62.8124 88.5 53.7499 100.887 49.4499 113.8C47.4249 119.887 46.4499 126.1 47.3499 131.975C47.0624 132.225 46.7999 132.487 46.5499 132.762C44.6624 134.775 43.2624 137.225 41.6999 138.875C40.2499 140.325 38.1749 140.875 35.8999 141.687C33.6124 142.512 31.1124 143.712 29.5999 146.625V146.637C28.9289 147.947 28.5979 149.404 28.6374 150.875C28.6374 152.225 28.8374 153.587 29.0374 154.9C29.4624 157.65 29.8874 160.237 29.3249 161.987C27.5249 166.925 27.2874 170.325 28.5624 172.8C29.8374 175.287 32.4374 176.375 35.3999 176.987C41.3124 178.237 49.3249 177.925 55.6374 181.262C62.3874 184.8 69.2499 186.05 74.7124 184.812C76.6224 184.437 78.417 183.617 79.9504 182.418C81.4837 181.219 82.7127 179.676 83.5374 177.912C87.8124 177.887 92.4999 176.087 100.012 175.662C105.112 175.262 111.487 177.475 118.8 177.075C118.989 177.869 119.275 178.637 119.65 179.362L119.662 179.375C122.5 185.062 127.787 187.65 133.412 187.212C139.037 186.762 145.012 183.45 149.85 177.687C154.475 172.087 162.125 169.775 167.2 166.712C169.737 165.175 171.8 163.262 171.95 160.475C172.112 157.7 170.475 154.587 166.725 150.412Z" fill="#202020"/>
<path d="M169.637 160.35C169.55 162.063 168.3 163.35 166.012 164.725C161.412 167.5 153.275 169.9 148.087 176.2C143.562 181.575 138.062 184.513 133.212 184.9C128.375 185.275 124.2 183.275 121.725 178.325V178.3C120.187 175.388 120.825 170.8 122.112 165.963C123.4 161.125 125.25 156.15 125.5 152.113C125.75 146.925 126.05 142.4 126.925 138.913C127.8 135.413 129.162 133.063 131.587 131.725C131.699 131.665 131.811 131.606 131.925 131.55C132.2 136.038 134.425 140.613 138.35 141.6C142.637 142.725 148.825 139.05 151.437 136.038L152.962 135.988C155.262 135.925 157.175 136.063 159.15 137.775C160.662 139.05 161.387 141.488 162.012 144.188C162.637 146.9 163.137 149.85 165 151.95C168.587 155.95 169.75 158.625 169.637 160.35ZM82.4 173.038V173.075C81.975 178.513 78.9 181.475 74.2 182.55C69.4875 183.625 63.1 182.55 56.725 179.225C49.6625 175.475 41.2625 175.85 35.8875 174.725C33.1875 174.163 31.425 173.313 30.625 171.75C29.825 170.175 29.8 167.438 31.5125 162.75V162.738L31.525 162.713C32.375 160.1 31.75 157.238 31.3375 154.55C30.925 151.875 30.725 149.425 31.6375 147.725L31.65 147.713C32.825 145.45 34.55 144.638 36.6875 143.875C38.8125 143.1 41.35 142.5 43.35 140.5L43.3625 140.488C45.2125 138.525 46.625 136.075 48.25 134.338C49.625 132.875 51 131.9 53.0625 131.888H53.125C53.5145 131.891 53.9031 131.925 54.2875 131.988C57.0375 132.4 59.425 134.325 61.7375 137.45L68.4 149.588V149.6C70.175 153.3 73.9125 157.375 77.0875 161.525C80.2625 165.688 82.7125 169.85 82.4 173.038Z" fill="#F8BF11"/>
<path d="M115.625 59.85C115.087 58.8 114 57.8 112.125 57.0375C108.25 55.375 106.575 55.2625 104.412 53.8625C100.912 51.6 98 50.8125 95.5875 50.8125C94.4294 50.8181 93.2803 51.0167 92.1875 51.4C89.2375 52.4 87.2875 54.525 86.0625 55.675C85.8125 55.9125 85.5125 56.1125 84.7625 56.675C84.0125 57.2125 82.8875 58.05 81.2625 59.275C79.8 60.35 79.3375 61.775 79.8375 63.425C80.3375 65.075 81.925 66.9875 84.8375 68.6375C86.65 69.7 87.9 71.1375 89.325 72.275C90.0407 72.8699 90.8358 73.3622 91.6875 73.7375C92.5875 74.125 93.6375 74.3875 94.9375 74.4625C98.0375 74.65 100.312 73.7125 102.312 72.575C104.312 71.425 106.012 70.025 107.962 69.3875C111.962 68.1375 114.825 65.625 115.725 63.225C115.952 62.6884 116.061 62.109 116.043 61.5266C116.026 60.9441 115.883 60.3722 115.625 59.85Z" fill="#D6A312"/>
<path d="M105.475 65.7501C102.287 67.4126 98.5749 69.4251 94.6124 69.4251C90.6624 69.4251 87.5374 67.6001 85.2999 65.8126C84.1749 64.9376 83.2624 64.0376 82.5749 63.4001C81.3749 62.4626 81.5249 61.1376 82.0124 61.1751C82.8374 61.2751 82.9624 62.3626 83.4749 62.8501C84.1749 63.5001 85.0499 64.3501 86.1124 65.1876C88.2374 66.8751 91.0749 68.5126 94.6124 68.5126C98.1624 68.5126 102.287 66.4376 104.812 65.0126C106.25 64.2126 108.062 62.7751 109.55 61.6876C110.675 60.8501 110.637 59.8501 111.575 59.9626C112.512 60.0751 111.825 61.0751 110.512 62.2126C109.2 63.3626 107.137 64.8876 105.475 65.7501Z" fill="#202020"/>
<path d="M154.212 133.675C153.779 133.662 153.346 133.662 152.912 133.675H152.787C153.887 130.213 151.462 127.675 145.025 124.763C138.35 121.825 133.025 122.113 132.125 128.075C132.062 128.388 132.012 128.7 131.987 129.025C131.47 129.208 130.968 129.434 130.487 129.7C127.337 131.413 125.625 134.525 124.675 138.35C123.725 142.163 123.45 146.775 123.187 151.975C123.025 154.575 121.95 158.1 120.862 161.85C109.925 169.65 94.7375 173.025 81.8375 164.225C80.9625 162.85 79.9625 161.475 78.925 160.125C78.2663 159.265 77.5996 158.41 76.925 157.563C78.0733 157.593 79.215 157.38 80.275 156.938C80.8046 156.715 81.2836 156.388 81.6832 155.976C82.0828 155.563 82.3947 155.074 82.6 154.538C83.3875 152.413 82.6 149.438 80.075 146.038C77.5625 142.625 73.3 138.788 67.0375 134.938C62.4375 132.063 59.8625 128.563 58.6625 124.763C57.45 120.95 57.6125 116.825 58.5375 112.763C60.325 104.95 64.9125 97.35 67.825 92.5875C68.6125 92.0125 68.1125 93.6625 64.875 99.675C61.975 105.175 56.5375 117.863 63.975 127.775C64.175 120.725 65.85 113.525 68.6875 106.813C72.8 97.475 81.4125 81.3 82.0875 68.4C82.45 68.65 83.65 69.475 84.2 69.775C85.775 70.7125 86.9625 72.075 88.5 73.3125C90.505 75.0047 93.0651 75.8952 95.6875 75.8125C98.6875 75.8125 101.025 74.825 102.962 73.7125C105.087 72.5125 106.762 71.1625 108.375 70.65C111.75 69.5875 114.45 67.7125 115.975 65.525C118.6 75.9 124.725 90.8625 128.65 98.1625C130.737 102.038 134.9 110.275 136.687 120.188C137.825 120.163 139.075 120.313 140.425 120.663C145.112 108.5 136.437 95.3875 132.475 91.7375C130.875 90.1875 130.787 89.4875 131.6 89.525C135.887 93.325 141.537 100.988 143.6 109.625C144.537 113.563 144.725 117.7 143.725 121.788C144.225 122 144.725 122.213 145.225 122.463C152.762 126.125 155.55 129.313 154.212 133.675Z" fill="white"/>
<path d="M100.5 100.775C93.55 100.8 86.7625 103.913 81.025 109.725C75.275 115.525 70.85 123.75 68.3 133.325L69.0625 133.8V133.85C74.9375 137.575 79.125 141.325 81.7125 144.825C84.45 148.525 85.6625 152.125 84.5 155.25C83.8864 156.829 82.6731 158.1 81.125 158.788L80.6125 158.975C81.5375 160.188 82.4375 161.438 83.275 162.725C95.075 170.575 108.8 167.675 119.113 160.575C120.113 157.1 121.025 153.875 121.15 151.85C121.413 146.663 121.675 141.95 122.7 137.85C123.725 133.725 125.725 129.975 129.5 127.913C129.713 127.788 129.925 127.725 130.138 127.625C130.204 127.228 130.296 126.835 130.413 126.45C127.388 118.675 123.025 112.2 117.788 107.7C112.538 103.2 106.575 100.813 100.513 100.775H100.5ZM130.125 127.713L130.1 127.775V127.75L130.113 127.7L130.125 127.713Z" fill="#E6E6E6"/>
<path d="M115.975 47.9125C116.029 50.8706 115.082 53.7602 113.287 56.1125C112.39 55.7115 111.481 55.3364 110.562 54.9875L108.975 54.425C109.338 53.9875 110.037 53.4875 110.312 52.8375C110.708 51.8728 110.92 50.8426 110.937 49.8L110.95 49.675C110.981 48.6734 110.833 47.6744 110.512 46.725C110.261 45.8579 109.797 45.0674 109.162 44.425C108.911 44.158 108.609 43.9433 108.275 43.7932C107.94 43.643 107.579 43.5604 107.212 43.55H107.125C106.425 43.5597 105.753 43.8267 105.237 44.3C104.555 44.8909 104.031 45.6428 103.712 46.4875C103.319 47.4528 103.107 48.4826 103.087 49.525V49.65C103.068 50.2356 103.105 50.8217 103.2 51.4C101.782 50.7455 100.299 50.2427 98.775 49.9C98.7024 49.3486 98.6607 48.7935 98.65 48.2375V48.075C98.5971 46.1539 98.9729 44.2452 99.75 42.4875C100.412 40.8691 101.49 39.4546 102.875 38.3875C104.1 37.3982 105.625 36.8559 107.2 36.85H107.275C108.837 36.85 110.175 37.3 111.55 38.3C112.966 39.3363 114.076 40.7355 114.762 42.35C115.55 44.075 115.937 45.7625 115.975 47.7625L115.987 47.9125H115.975ZM92.35 49.9625C91.1262 50.3126 89.9598 50.839 88.8875 51.525C88.9713 50.9033 88.9797 50.2737 88.9125 49.65V49.55C88.836 48.7241 88.6336 47.9147 88.3125 47.15C88.0552 46.477 87.6443 45.8735 87.1125 45.3875C86.9171 45.1957 86.6839 45.0467 86.4279 44.9499C86.1718 44.8531 85.8984 44.8105 85.625 44.825C85.1 44.875 84.6625 45.125 84.25 45.6375C83.8109 46.2107 83.5113 46.8784 83.375 47.5875C83.1801 48.4269 83.1252 49.2927 83.2125 50.15V50.25C83.2843 51.0807 83.4868 51.8949 83.8125 52.6625C84.1118 53.431 84.6127 54.1046 85.2625 54.6125L83.9875 55.6125L83.0125 56.3125C82.1465 55.4608 81.4656 54.4395 81.0125 53.3125C80.35 51.8125 79.9875 50.3125 79.8875 48.55V48.5375C79.773 46.8917 79.9637 45.2389 80.45 43.6625C80.8231 42.2877 81.5417 41.0312 82.5375 40.0125C82.9552 39.5513 83.4643 39.1819 84.0324 38.928C84.6005 38.6741 85.2152 38.5411 85.8375 38.5375C86.8875 38.5375 87.8125 38.8875 88.775 39.6625C89.8746 40.5656 90.73 41.7304 91.2625 43.05C91.925 44.55 92.2625 46.05 92.375 47.825C92.4125 48.575 92.4125 49.275 92.35 49.9625Z" fill="white"/>
<path d="M97.5751 54.1875C97.7001 54.6125 98.3876 54.55 98.7876 54.75C99.1251 54.925 99.4126 55.3125 99.7876 55.325C100.163 55.3375 100.738 55.2 100.788 54.825C100.85 54.35 100.138 54.0375 99.6876 53.8625C99.1001 53.625 98.3501 53.5125 97.8001 53.825C97.6751 53.8875 97.5376 54.0375 97.5751 54.1875ZM93.5501 54.1875C93.4251 54.6125 92.7376 54.55 92.3501 54.75C92.0001 54.925 91.7251 55.3125 91.3376 55.325C90.9626 55.3375 90.3876 55.2 90.3376 54.825C90.2751 54.35 90.9876 54.0375 91.4376 53.8625C92.0251 53.625 92.7876 53.5125 93.3376 53.825C93.4626 53.8875 93.5876 54.0375 93.5501 54.1875Z" fill="#202020"/>
</svg>
