<svg width="200" height="200" viewBox="0 0 200 200" fill="none" xmlns="http://www.w3.org/2000/svg">
<path fill-rule="evenodd" clip-rule="evenodd" d="M200 46.675V13.2667C199.998 12.7658 199.866 12.2741 199.615 11.8406C199.364 11.407 199.004 11.0467 198.571 10.7955C198.138 10.5443 197.646 10.411 197.146 10.4088C196.645 10.4067 196.152 10.5358 195.717 10.7833L173.717 23.35C172.841 23.8519 172.113 24.5763 171.606 25.4499C171.1 26.3235 170.833 27.3153 170.833 28.325V61.7333C170.833 63.9333 173.208 65.3167 175.117 64.2167L197.117 51.65C197.994 51.1474 198.723 50.4217 199.229 49.5465C199.736 48.6713 200.001 47.6861 200 46.675ZM4.29167 10.7917L67.9833 47.3167C68.8509 47.8137 69.8334 48.0752 70.8333 48.0752C71.8332 48.0752 72.8157 47.8137 73.6833 47.3167L137.375 10.7917C137.811 10.5421 138.304 10.4113 138.806 10.4124C139.308 10.4135 139.801 10.5464 140.236 10.7978C140.67 11.0493 141.031 11.4104 141.282 11.8452C141.533 12.2799 141.666 12.7729 141.667 13.275V113.525C141.667 115.483 140.667 117.3 139.008 118.358L100.258 142.967L126.175 158.233C128.008 159.317 130.3 159.292 132.117 158.158L170.533 134.175C170.945 133.916 171.284 133.557 171.519 133.132C171.753 132.706 171.876 132.228 171.875 131.742V97.7C171.875 95.5833 173.042 93.65 174.892 92.65L195.783 81.4333C196.22 81.2003 196.709 81.0842 197.204 81.0964C197.698 81.1086 198.182 81.2486 198.606 81.5028C199.031 81.757 199.382 82.1167 199.626 82.547C199.871 82.9773 199.999 83.4635 200 83.9583V146.717C200 148.75 198.917 150.633 197.167 151.658L131.883 189.925C130.984 190.452 129.957 190.723 128.915 190.71C127.872 190.697 126.853 190.399 125.967 189.85L76.3583 159.175C75.9424 158.918 75.5993 158.558 75.3616 158.131C75.1238 157.703 74.9993 157.222 75 156.733V126.533C75 125.575 75.475 124.683 76.275 124.15L109.942 101.7C110.727 101.177 111.372 100.469 111.818 99.6374C112.265 98.8059 112.499 97.877 112.5 96.9333V60.35C112.5 60.1477 112.446 59.949 112.343 59.7744C112.241 59.5998 112.094 59.4555 111.918 59.3563C111.742 59.2571 111.542 59.2066 111.34 59.2099C111.138 59.2131 110.94 59.2701 110.767 59.375L73.7667 81.575C72.88 82.1074 71.8657 82.3901 70.8315 82.393C69.7972 82.396 68.7814 82.1191 67.8917 81.5917L30.375 59.3583C30.2009 59.2558 30.0029 59.201 29.8008 59.1994C29.5988 59.1978 29.3999 59.2494 29.2242 59.3491C29.0485 59.4488 28.9021 59.593 28.7998 59.7673C28.6976 59.9415 28.643 60.1396 28.6417 60.3417V126.45C28.6408 126.956 28.506 127.453 28.251 127.89C27.9959 128.327 27.6297 128.689 27.1895 128.939C26.7493 129.188 26.2509 129.317 25.7448 129.312C25.2388 129.306 24.7432 129.167 24.3083 128.908L4.16667 116.825C1.58333 115.275 0 112.475 0 109.458V13.275C0 11.075 2.38333 9.69166 4.29167 10.7917Z" fill="#0073E6"/>
</svg>
