<svg width="200" height="200" viewBox="0 0 200 200" fill="none" xmlns="http://www.w3.org/2000/svg">
<g clip-path="url(#clip0_9620_7228)">
<path fill-rule="evenodd" clip-rule="evenodd" d="M47.737 32.9223C45.839 32.9163 43.9484 33.1542 42.1125 33.63V33.8776H42.3848C43.6996 35.838 45.1656 37.6952 46.7697 39.4329C47.8731 41.5983 48.8332 43.7567 49.9294 45.9222C50.0656 45.7877 50.2017 45.6462 50.2017 45.6462C51.2195 44.8482 52.0162 43.8086 52.5173 42.6244C53.0185 41.4401 53.2078 40.1498 53.0677 38.8738C52.4676 37.9599 51.9175 37.015 51.4197 36.0431C50.5958 34.6915 48.8117 34.0121 47.7155 32.9294" fill="#5D87A1"/>
<path fill-rule="evenodd" clip-rule="evenodd" d="M185.033 154.407C175.892 153.763 166.72 155.092 158.134 158.305C156.055 159.141 152.736 159.141 152.446 161.78C153.562 162.892 153.692 164.688 154.67 166.237C156.568 169.461 159.008 172.332 161.881 174.722C164.779 176.947 167.678 179.164 170.757 181.113C176.156 184.465 182.265 186.406 187.526 189.743C190.584 191.692 193.627 194.193 196.685 196.287C198.207 197.399 199.171 199.195 201.113 199.922V199.5C200.542 197.955 199.836 196.464 199.004 195.044C197.62 193.662 196.228 192.404 194.837 191.016C190.772 185.623 185.909 180.886 180.417 176.968C175.975 173.9 166.265 169.698 164.475 164.608L164.192 164.325C167.443 163.863 170.646 163.113 173.765 162.085C178.475 160.835 182.772 161.118 187.62 159.904C189.844 159.344 193.866 157.956 193.866 157.956V155.774C191.388 153.302 189.613 149.994 187.004 147.66C179.907 141.444 172.343 135.785 164.381 130.734C160.127 127.978 154.641 126.204 150.113 123.856C148.475 123.027 145.765 122.62 144.772 121.238C142.519 117.923 140.634 114.371 139.149 110.645C135.178 103.083 131.33 94.7002 127.91 86.7024C125.885 81.3425 123.55 76.1059 120.917 71.0194C108.209 49.3414 89.8665 31.5379 67.8516 19.5135C62.2967 16.8158 56.3909 14.9164 50.3081 13.8714C46.8733 13.726 43.453 13.457 40.0255 13.3261C37.8129 11.8717 35.7083 10.2582 33.7284 8.49837C25.8878 3.51792 5.74283 -7.1846 -0.0252869 6.98606C-3.72094 15.9363 5.46747 24.7339 8.61965 29.2781C11.2776 32.4822 13.6195 35.9375 15.6124 39.5953C16.5762 41.9365 16.8515 44.4158 17.7863 46.866C19.7978 53.156 22.1862 59.3182 24.9385 65.3191C26.4105 68.285 28.1063 71.1338 30.011 73.8404C31.1197 75.36 33.0327 76.0217 33.4458 78.5301C31.9261 81.8075 30.863 85.2791 30.2863 88.8472C27.891 96.4371 27.0095 104.426 27.6921 112.358C28.3747 120.29 30.608 128.009 34.2646 135.075C36.4385 138.514 41.6704 146.082 48.6632 143.189C54.8298 140.717 53.4603 132.872 55.2429 126.001C55.6487 124.336 55.3806 123.245 56.1994 122.147V123.485C56.1994 123.485 59.6994 131.199 61.4385 135.118C66.1681 142.309 72.0435 148.671 78.8298 153.949C81.5142 156.301 83.6768 159.191 85.1777 162.434V164.928H88.2719C88.2074 163.804 87.8968 162.707 87.362 161.717C86.8271 160.727 86.0814 159.867 85.1777 159.199C82.6403 156.578 80.3164 153.758 78.2284 150.765C72.5563 142.659 67.5541 134.102 63.2719 125.179C61.0979 120.817 59.2646 116.032 57.5255 111.677C56.7284 109.998 56.7284 107.46 55.3878 106.588C52.9124 109.526 50.7644 112.728 48.982 116.134C46.8182 123.02 45.5588 130.159 45.2356 137.372C44.7066 137.517 44.9675 137.372 44.7066 137.648C40.4385 136.521 38.9675 131.89 37.3588 127.964C33.2031 115.855 32.7839 102.77 36.1559 90.4177C37.0834 87.4731 41.1052 78.1956 39.4965 75.3818C38.6921 72.6989 36.0182 71.1648 34.5544 69.049C32.6858 66.2027 31.0778 63.1924 29.7501 60.0551C26.5689 52.2318 24.9602 43.5069 21.4965 35.6255C19.5791 31.835 17.3465 28.2134 14.8225 24.7994C12.0306 21.3889 9.56788 17.7201 7.46747 13.8424C6.80081 12.2937 5.86602 9.76348 6.93124 8.07667C7.00313 7.60811 7.22521 7.17581 7.56385 6.84521C7.9025 6.51461 8.33927 6.30371 8.80805 6.24444C10.5327 4.70305 15.482 6.66615 17.2139 7.50955C21.8686 9.34817 26.3023 11.7066 30.4313 14.5403C32.3008 15.9509 36.7066 19.5208 36.7066 19.5208H38.011C42.4458 20.4878 47.4313 19.7898 51.6052 21.0477C58.6329 23.3982 65.3397 26.6224 71.569 30.645C89.929 42.3884 104.855 58.8094 114.823 78.232C116.489 81.4238 117.192 84.3539 118.714 87.6839C121.612 94.5184 125.236 101.498 128.134 108.144C130.691 114.719 133.998 120.974 137.989 126.786C140.062 129.694 148.388 131.236 152.134 132.762C155.388 133.892 158.58 135.19 161.699 136.652C166.417 139.561 171.12 142.912 175.562 146.104C177.772 147.776 184.707 151.252 185.127 154.037" fill="#00758F"/>
</g>
<defs>
<clipPath id="clip0_9620_7228">
<rect width="200" height="200" fill="white"/>
</clipPath>
</defs>
</svg>
