<svg width="200" height="200" viewBox="0 0 200 200" fill="none" xmlns="http://www.w3.org/2000/svg">
<path d="M100 187.5C148.325 187.5 187.5 148.325 187.5 100C187.5 51.6751 148.325 12.5 100 12.5C51.6751 12.5 12.5 51.6751 12.5 100C12.5 148.325 51.6751 187.5 100 187.5Z" fill="#8892BF"/>
<path d="M90.245 62.5H100.745L97.7775 78.2763H107.212C112.387 78.3869 116.241 79.5431 118.778 81.7456C121.365 83.9475 122.126 88.1338 121.061 94.3006L115.963 121.806H105.311L110.18 95.5394C110.687 92.7856 110.535 90.8312 109.724 89.675C108.912 88.5187 107.162 87.9406 104.474 87.9406L96.0275 87.8581L89.7881 121.806H79.2881L90.245 62.5Z" fill="white"/>
<path fill-rule="evenodd" clip-rule="evenodd" d="M42.1308 78.2769H62.5225C68.5075 78.3312 72.845 80.2044 75.5337 83.8931C78.2225 87.5825 79.11 92.6206 78.1969 99.0087C77.8425 101.928 77.0556 104.791 75.8381 107.599C74.6712 110.407 73.0487 112.94 70.9687 115.198C68.4319 118.061 65.7181 119.878 62.8269 120.65C59.9356 121.421 56.9423 121.806 53.8484 121.806H44.7177L41.8264 137.5H31.25L42.1308 78.2769ZM46.4678 112.472L51.0179 87.7756H52.5549C53.1134 87.7756 53.6962 87.7475 54.305 87.6931C58.3636 87.6381 61.7359 88.0512 64.425 88.9319C67.1637 89.8125 68.0769 93.1444 67.1637 98.9262C66.0487 105.81 63.8662 109.829 60.6204 110.986C57.3744 112.087 53.3158 112.61 48.4461 112.555H47.3809C47.0765 112.555 46.7722 112.527 46.4678 112.472Z" fill="white"/>
<path fill-rule="evenodd" clip-rule="evenodd" d="M152.728 78.2769H132.336L121.456 137.5H132.032L134.924 121.806H144.054C147.148 121.806 150.141 121.421 153.032 120.65C155.924 119.878 158.637 118.061 161.174 115.198C163.254 112.94 164.877 110.407 166.044 107.599C167.261 104.791 168.048 101.928 168.402 99.0087C169.316 92.6206 168.429 87.5825 165.739 83.8931C163.051 80.2044 158.714 78.3312 152.728 78.2769ZM141.224 87.7756L136.674 112.472C136.978 112.527 137.282 112.555 137.587 112.555H138.652C143.522 112.61 147.58 112.087 150.826 110.986C154.072 109.829 156.254 105.81 157.37 98.9262C158.283 93.1444 157.37 89.8125 154.631 88.9319C151.942 88.0512 148.569 87.6381 144.511 87.6931C143.902 87.7475 143.319 87.7756 142.761 87.7756H141.224Z" fill="white"/>
</svg>
