<svg width="200" height="200" viewBox="0 0 200 200" fill="none" xmlns="http://www.w3.org/2000/svg">
<path d="M47.2629 94.4906C64.2808 100.457 82.2339 103.329 100.269 102.97C118.304 103.326 136.257 100.452 153.275 94.4835C166.558 89.3162 171.269 83.5731 171.269 80.268V55C166.625 58.1019 161.642 60.6677 156.417 62.6479C138.412 69.0783 119.391 72.2134 100.269 71.9022C81.1483 72.2075 62.1288 69.0776 44.1202 62.6621C38.8927 60.6818 33.9098 58.111 29.2688 55V80.2325C29.2688 83.6016 33.9936 89.3162 47.2629 94.4906Z" fill="#FFDA44"/>
<path d="M47.2629 142.48C53.2747 144.775 59.4742 146.544 65.7914 147.766C77.1512 149.966 88.6986 151.049 100.269 150.998C111.839 151.051 123.386 149.971 134.746 147.774C141.063 146.551 147.263 144.782 153.275 142.487C166.558 137.301 171.269 131.537 171.269 128.22V104.036C167.43 106.348 163.395 108.318 159.211 109.921C140.296 116.625 120.331 119.871 100.269 119.502C80.2044 119.859 60.2394 116.602 41.3266 109.885C37.1443 108.278 33.1098 106.308 29.2688 104V128.205C29.2688 131.53 33.9936 137.273 47.2629 142.48Z" fill="#FFDA44"/>
<path d="M100.269 200C139.464 200 171.269 187.563 171.269 172.231V152C167.777 154.107 164.118 155.924 160.33 157.434L159.211 157.883C140.3 164.605 120.335 167.868 100.269 167.517C80.2024 167.878 60.2354 164.615 41.3266 157.883C40.9418 157.741 40.5712 157.577 40.2078 157.434C36.4196 155.924 32.7611 154.107 29.2688 152V172.231C29.2688 187.563 61.0738 200 100.269 200Z" fill="#FFDA44"/>
<path d="M100.269 56C139.481 56 171.269 43.464 171.269 28C171.269 12.536 139.481 0 100.269 0C61.0566 0 29.2688 12.536 29.2688 28C29.2688 43.464 61.0566 56 100.269 56Z" fill="#FFDA44"/>
</svg>
