<svg width="200" height="200" viewBox="0 0 200 200" fill="none" xmlns="http://www.w3.org/2000/svg">
<g clip-path="url(#clip0_9620_7206)">
<path d="M0 100V200H100H200V100V0H100H0V100Z" fill="#007ACC"/>
<path d="M44.2274 100.663L44.1639 108.854L57.1798 108.854H70.1957V145.838V182.822H79.402H88.6084V145.838L88.6084 108.854H101.624H114.64V100.822C114.64 96.3777 114.545 92.6634 114.418 92.5681C114.323 92.4412 98.4814 92.3777 79.2751 92.4094L44.3227 92.5047L44.2274 100.663Z" fill="white"/>
<path d="M161.38 92.2721C166.46 93.542 170.333 95.7959 173.888 99.4785C175.729 101.447 178.459 105.034 178.682 105.891C178.745 106.145 170.047 111.986 164.777 115.256C164.586 115.383 163.825 114.558 162.967 113.288C160.396 109.542 157.698 107.923 153.571 107.637C147.507 107.225 143.602 110.399 143.634 115.701C143.634 117.256 143.856 118.177 144.491 119.447C145.825 122.209 148.301 123.859 156.079 127.225C170.396 133.383 176.523 137.447 180.333 143.225C184.586 149.669 185.539 159.955 182.65 167.605C179.475 175.923 171.602 181.574 160.523 183.447C157.094 184.05 148.967 183.955 145.285 183.288C137.253 181.859 129.634 177.891 124.936 172.685C123.094 170.653 119.507 165.352 119.729 164.971C119.825 164.844 120.65 164.336 121.571 163.796C122.46 163.288 125.825 161.352 128.999 159.51L134.745 156.177L135.952 157.955C137.634 160.526 141.317 164.05 143.539 165.225C149.92 168.59 158.682 168.113 162.999 164.24C164.84 162.558 165.602 160.812 165.602 158.24C165.602 155.923 165.317 154.907 164.11 153.161C162.555 150.939 159.38 149.066 150.364 145.161C140.047 140.717 135.602 137.955 131.539 133.574C129.19 131.034 126.967 126.971 126.047 123.574C125.285 120.748 125.094 113.669 125.698 110.812C127.825 100.844 135.348 93.8912 146.206 91.8277C149.729 91.161 157.92 91.415 161.38 92.2721Z" fill="white"/>
</g>
<defs>
<clipPath id="clip0_9620_7206">
<rect width="200" height="200" fill="white"/>
</clipPath>
</defs>
</svg>
