<svg width="200" height="200" viewBox="0 0 200 200" fill="none" xmlns="http://www.w3.org/2000/svg">
<path d="M28.8958 156.567C26.5063 158.609 23.1711 159.133 20.2708 157.922L5.125 151.567C2.03642 150.279 0.0181472 147.268 0 143.922V55.0465C0.0181472 51.7001 2.03642 48.6891 5.125 47.4007L20.2708 41.1507C23.1711 39.9394 26.5063 40.463 28.8958 42.5049L32.2917 45.3174C30.8876 44.308 29.0363 44.1705 27.4984 44.9613C25.9606 45.7522 24.9956 47.3381 25 49.0674V149.901C24.9956 151.63 25.9606 153.216 27.4984 154.007C29.0363 154.798 30.8876 154.66 32.2917 153.651L28.8958 156.567Z" fill="#52218A"/>
<path d="M5.125 151.567C2.03642 150.279 0.0181472 147.268 0 143.922V143.234C0.0210105 145.202 1.23822 146.959 3.07337 147.67C4.90852 148.381 6.99173 147.903 8.33333 146.463L137.5 3.65068C141.248 -0.0789654 146.938 -1.04669 151.708 1.23401L192.917 21.0673C197.248 23.1501 200.002 27.5319 200 32.3382V32.8173C199.997 29.7677 198.239 26.9922 195.482 25.6875C192.726 24.3827 189.464 24.782 187.104 26.7132L32.2917 153.651L28.8958 156.567C26.5063 158.609 23.1712 159.133 20.2708 157.922L5.125 151.567Z" fill="#6C33AF"/>
<path d="M5.125 47.4007C2.03642 48.689 0.0181472 51.7 0 55.0465V55.734C0.0210105 53.766 1.23822 52.0091 3.07337 51.298C4.90852 50.5869 6.99173 51.0649 8.33333 52.5048L137.5 195.317C141.248 199.047 146.938 200.015 151.708 197.734L192.917 177.901C197.248 175.818 200.002 171.436 200 166.63V166.151C199.997 169.2 198.239 171.976 195.482 173.281C192.726 174.585 189.464 174.186 187.104 172.255L32.2917 45.3173L28.8958 42.4007C26.4852 40.3941 23.152 39.911 20.2708 41.1507L5.125 47.4007Z" fill="#854CC7"/>
<path d="M151.708 197.734C146.938 200.015 141.248 199.047 137.5 195.317C139.599 197.402 142.745 198.02 145.478 196.886C148.21 195.753 149.993 193.088 150 190.13V8.87984C150.01 5.91406 148.233 3.23416 145.497 2.08958C142.761 0.945002 139.605 1.56112 137.5 3.65068C141.248 -0.0789654 146.938 -1.04669 151.708 1.23401L192.917 21.0465C197.248 23.1292 200.002 27.511 200 32.3173V166.651C200.002 171.457 197.248 175.839 192.917 177.922L151.708 197.734Z" fill="#B179F1"/>
<path d="M143.521 198.651C146.275 199.279 149.161 198.956 151.708 197.734L192.917 177.922C197.248 175.839 200.002 171.457 200 166.651V32.3174C200.002 27.5111 197.248 23.1292 192.917 21.0465L151.708 1.23402C148.793 -0.167544 145.447 -0.384108 142.375 0.629856C140.538 1.24537 138.869 2.27954 137.5 3.65069L71.0833 77.109L32.2917 45.3174L28.8958 42.4007C26.8229 40.6283 24.0139 39.9825 21.375 40.6715C20.9943 40.7556 20.624 40.8814 20.2708 41.0465L5.125 47.4007C2.23474 48.5941 0.255808 51.3051 0 54.4215C0 54.6299 0 54.8382 0 55.0465V143.922C0 144.13 0 144.338 0 144.547C0.255808 147.663 2.23474 150.374 5.125 151.567L20.2708 157.817C20.624 157.982 20.9943 158.108 21.375 158.192C24.0139 158.881 26.8229 158.236 28.8958 156.463L32.2917 153.651L71.0833 121.859L137.5 195.317C139.156 196.97 141.242 198.125 143.521 198.651ZM150 57.1507L98.3542 99.484L150 141.817V57.1507ZM25 70.8799L50.8542 99.484L25 128.088V70.8799Z" fill="url(#paint0_linear_9625_39)" fill-opacity="0.25"/>
<defs>
<linearGradient id="paint0_linear_9625_39" x1="10000" y1="0.485578" x2="10000" y2="19896.3" gradientUnits="userSpaceOnUse">
<stop stop-color="white"/>
<stop offset="1" stop-color="white" stop-opacity="0"/>
</linearGradient>
</defs>
</svg>
