<svg width="200" height="200" viewBox="0 0 200 200" fill="none" xmlns="http://www.w3.org/2000/svg">
<path d="M187.5 93.75H106.25C102.5 93.75 100 91.25 100 87.5V20.625C100 17.5 102.5 15 105 14.375L186.25 0C188.125 0 190 0 191.25 1.25C193.125 2.5 193.75 4.375 193.75 6.25V87.5C193.75 91.25 191.25 93.75 187.5 93.75Z" fill="#00ADEF"/>
<path d="M81.25 93.75H6.25C2.5 93.75 0 91.25 0 87.5V37.5C0 34.375 2.5 31.875 5 31.25L80 18.75C81.875 18.75 83.75 18.75 85 20C86.875 21.25 87.5 23.125 87.5 25V87.5C87.5 91.25 85 93.75 81.25 93.75Z" fill="#00ADEF"/>
<path d="M187.5 200C186.875 200 186.875 200 186.25 200L105 185.625C101.875 185 100 182.5 100 179.375V112.5C100 108.75 102.5 106.25 106.25 106.25H187.5C191.25 106.25 193.75 108.75 193.75 112.5V193.75C193.75 195.625 193.125 197.5 191.25 198.75C190.625 199.375 188.75 200 187.5 200Z" fill="#00ADEF"/>
<path d="M81.25 181.25C80.625 181.25 80.625 181.25 80 181.25L5 168.75C2.5 168.125 0 165.625 0 162.5V112.5C0 108.75 2.5 106.25 6.25 106.25H81.25C85 106.25 87.5 108.75 87.5 112.5V175C87.5 176.875 86.875 178.75 85 180C84.375 180.625 82.5 181.25 81.25 181.25Z" fill="#00ADEF"/>
</svg>
