<svg width="200" height="200" viewBox="0 0 200 200" fill="none" xmlns="http://www.w3.org/2000/svg">
<path d="M100 187.5C148.325 187.5 187.5 148.325 187.5 100C187.5 51.6751 148.325 12.5 100 12.5C51.6751 12.5 12.5 51.6751 12.5 100C12.5 148.325 51.6751 187.5 100 187.5Z" fill="#028CB0"/>
<path d="M40.3461 100C40.3461 123.639 54.0961 144 73.9806 153.678L45.5289 75.7263C42.1124 83.3625 40.3463 91.6344 40.3461 100ZM100 159.654C106.928 159.654 113.591 158.437 119.832 156.269L119.409 155.476L101.058 105.236L83.1825 157.221C88.4713 158.807 94.13 159.654 100 159.654ZM108.197 72.0237L129.774 136.173L135.75 116.289C138.289 108.039 140.245 102.116 140.245 96.9856C140.245 89.5819 137.601 84.505 135.38 80.5912C132.313 75.62 129.509 71.4425 129.509 66.5769C129.509 61.0769 133.634 56 139.558 56H140.298C129.306 45.9091 114.921 40.3213 100 40.3461C90.12 40.3443 80.395 42.7986 71.6987 47.4881C63.0031 52.1776 55.6091 58.9553 50.1827 67.2113L53.9904 67.3175C60.2308 67.3175 69.8556 66.5237 69.8556 66.5237C73.1344 66.3656 73.505 71.0719 70.2788 71.4425C70.2788 71.4425 67.0531 71.8656 63.4037 72.0237L85.1925 136.649L98.255 97.5144L88.9469 72.0237C86.8625 71.9087 84.7812 71.7325 82.7069 71.495C79.4806 71.2838 79.8513 66.3656 83.0769 66.5237C83.0769 66.5237 92.9137 67.3175 98.7837 67.3175C105.024 67.3175 114.649 66.5237 114.649 66.5237C117.875 66.3656 118.298 71.0719 115.072 71.4425C115.072 71.4425 111.846 71.8125 108.197 72.0237ZM129.986 151.562C139.01 146.315 146.499 138.791 151.706 129.743C156.912 120.695 159.652 110.439 159.654 100C159.654 89.6344 157.009 79.9038 152.356 71.3894C153.301 80.7569 151.882 90.2119 148.231 98.8894L129.986 151.562ZM100 168.75C81.7663 168.75 64.2794 161.507 51.3864 148.614C38.4933 135.721 31.25 118.234 31.25 100C31.25 81.7663 38.4933 64.2794 51.3864 51.3864C64.2794 38.4933 81.7663 31.25 100 31.25C118.234 31.25 135.721 38.4933 148.614 51.3864C161.507 64.2794 168.75 81.7663 168.75 100C168.75 118.234 161.507 135.721 148.614 148.614C135.721 161.507 118.234 168.75 100 168.75Z" fill="white"/>
</svg>
